# xmcd
#
# Track frame offsets: 
#        150
#        10783
#        29242
#        44650
#        61716
#        72969
#        85904
#        107275
#        128123
#        139191
#        154501
#        172103
#        189656
#        210041
#        223530
#
# Disc length: 3196 seconds
#
# Revision: 13
# Processed by: cddbd v1.5.2PL0 Copyright (c) Steve Scherf et al.
# Submitted via: ExactAudioCopy v0.99pb4
#
DISCID=cc0c7a0f
DTITLE=Johnny Cash - Unearthed [CD5: Best of Cash on American)
DYEAR=2003
DGENRE=Country
TTITLE0=Delia's Gone
TTITLE1=Bird on a Wire
TTITLE2=Thirteen
TTITLE3=Rowboat
TTITLE4=The One Rose (That's Left in My Heart)
TTITLE5=Rusty Cage
TTITLE6=Southern Accents
TTITLE7=Mercy Seat
TTITLE8=Solitary Man
TTITLE9=Wayfaring Stranger
TTITLE10=One
TTITLE11=Hung My Head
TTITLE12=The Man Comes Around
TTITLE13=We'll Meet Again
TTITLE14=Hurt
EXTD=Limited Edition Deluxe Packaging With 5 Discs.\r\n06024 9861335 1
EXTD=YEAR: 2003
EXTT0=
EXTT1=
EXTT2=
EXTT3=
EXTT4=
EXTT5=
EXTT6=
EXTT7=
EXTT8=
EXTT9=
EXTT10=
EXTT11=
EXTT12=
EXTT13=
EXTT14=
PLAYORDER=
